# xmcd
#
# Track frame offsets:
#	150
#	19466
#	35198
#	52050
#	70388
#	91081
#	109297
#	123806
#	141017
#	153434
#
# Disc length: 2261 seconds
#
# Revision: 1
# Processed by: cddbd v1.5.2PL0 Copyright (c) Steve Scherf et al.
# Submitted via: audiograbber 1.83.01
#
DISCID=8d08d30a
DTITLE=Saraghina - pay travel advance
DYEAR=2003
DGENRE=Electronic
TTITLE0=velvet
TTITLE1=be pop
TTITLE2=waiting
TTITLE3=sad song
TTITLE4=hit
TTITLE5=blue doll
TTITLE6=alone
TTITLE7=one good man
TTITLE8=in the sjky
TTITLE9=kiss from the moon
EXTD=Ausfahrt.de
EXTT0=
EXTT1=
EXTT2=
EXTT3=
EXTT4=
EXTT5=
EXTT6=
EXTT7=
EXTT8=
EXTT9=
PLAYORDER=
